<svg width="599" height="168" viewBox="0 0 599 168" fill="none" xmlns="http://www.w3.org/2000/svg">
<rect width="599" height="168" fill="#A90000"/>
<path d="M292 46C290.939 46 289.922 45.5786 289.172 44.8284C288.421 44.0783 288 43.0609 288 42V26C288 24.9391 288.421 23.9217 289.172 23.1716C289.922 22.4214 290.939 22 292 22H308C309.061 22 310.078 22.4214 310.828 23.1716C311.579 23.9217 312 24.9391 312 26C312 27.0609 311.579 28.0783 310.828 28.8284C310.078 29.5786 309.061 30 308 30H296V42C296 43.0609 295.579 44.0783 294.828 44.8284C294.078 45.5786 293.061 46 292 46Z" fill="white"/>
<path d="M288 70.0524C288 70.1049 288 70.1049 288 70.0524L288 100H296C296 97.6923 296 100 296 97.6923C296 100.14 296 95.3846 296 97.6923C296 95.3846 296 95.3846 296 97.6923V70C296 70 289.061 70.0524 288 70.0524Z" fill="white"/>
<path d="M345.948 129C345.895 129 345.895 129 345.948 129L316 129V121C318.308 121 316 121 318.308 121C315.86 121 320.615 121 318.308 121C320.615 121 320.615 121 318.308 121H346C346 121 345.948 127.939 345.948 129Z" fill="white"/>
<path d="M395.718 70.0001C394.885 69.9947 394.074 69.729 393.398 69.2401L339.718 30.9201L286.038 69.2401C285.177 69.7501 284.156 69.9188 283.177 69.7127C282.197 69.5067 281.331 68.9409 280.748 68.1272C280.165 67.3134 279.909 66.3107 280.029 65.3171C280.15 64.3235 280.638 63.4111 281.398 62.7601L337.398 22.7601C338.076 22.2778 338.887 22.0186 339.718 22.0186C340.55 22.0186 341.361 22.2778 342.038 22.7601L398.038 62.7601C398.721 63.2545 399.231 63.952 399.493 64.7531C399.756 65.5542 399.759 66.4179 399.502 67.2208C399.245 68.0237 398.74 68.7248 398.061 69.2239C397.381 69.723 396.561 69.9947 395.718 70.0001Z" fill="white"/>
<path d="M340 38V129H379.318L391 74.7017L340 38Z" fill="white"/>
<path d="M340 79.8739C340 96.5 340 96.5 340 111C359.707 111 372.231 93.8991 362.794 79.8739L340 46L340 79.8739Z" fill="#A90000"/>
<path d="M317.208 79.8739C307.768 93.8991 320.292 111 339.999 111C339.999 93.5 339.999 99 339.999 85V46L317.208 79.8739ZM337 99.5C328 98.5 324.932 95.5 324.932 87.3636H330.5C330.5 92.2505 331.263 93.5 337 93.5V99.5Z" fill="white"/>
<path d="M443.375 119.344L442.375 120.594C439.5 123.948 435.292 125.625 429.75 125.625C424.833 125.625 420.969 124 418.156 120.75C415.365 117.479 413.938 112.865 413.875 106.906V97.9688C413.875 91.5938 415.146 86.8229 417.688 83.6562C420.25 80.4688 424.073 78.875 429.156 78.875C433.49 78.875 436.875 80.0833 439.312 82.5C441.771 84.9167 443.125 88.3646 443.375 92.8438H437.656C437.427 90.0104 436.635 87.8021 435.281 86.2188C433.948 84.6146 431.917 83.8125 429.188 83.8125C425.917 83.8125 423.521 84.8854 422 87.0312C420.479 89.1562 419.688 92.5625 419.625 97.25V106.531C419.625 111.115 420.5 114.635 422.25 117.094C424 119.531 426.51 120.75 429.781 120.75C432.865 120.75 435.208 120 436.812 118.5L437.656 117.719V107.219H429.344V102.344H443.375V119.344ZM482.5 125H476.75V103.969H458.438V125H452.719V79.5H458.438V99.0625H476.75V79.5H482.5V125ZM514.188 113.125H498.812L495.281 125H489.406L504.062 79.5H508.969L523.656 125H517.781L514.188 113.125ZM500.312 108.188H512.719L506.5 87.5L500.312 108.188ZM543.594 106.594H535.594V125H529.844V79.5H542.594C547.052 79.5 550.427 80.6667 552.719 83C555.01 85.3125 556.156 88.7083 556.156 93.1875C556.156 96 555.531 98.4583 554.281 100.562C553.052 102.646 551.302 104.219 549.031 105.281L557.844 124.625V125H551.688L543.594 106.594ZM535.594 101.688H542.531C544.927 101.688 546.833 100.917 548.25 99.375C549.688 97.8333 550.406 95.7708 550.406 93.1875C550.406 87.3542 547.76 84.4375 542.469 84.4375H535.594V101.688Z" fill="white"/>
<path d="M61.625 107.188V125H55.9062V79.5H70.4062C74.6354 79.5 77.9583 80.7708 80.375 83.3125C82.7917 85.8333 84 89.1979 84 93.4062C84 97.7812 82.8438 101.156 80.5312 103.531C78.2396 105.885 75 107.104 70.8125 107.188H61.625ZM61.625 102.281H70.4062C72.9479 102.281 74.8958 101.521 76.25 100C77.6042 98.4792 78.2812 96.3021 78.2812 93.4688C78.2812 90.7396 77.5833 88.5521 76.1875 86.9062C74.7917 85.2604 72.875 84.4375 70.4375 84.4375H61.625V102.281ZM97.1562 120.094H115V125H91.4062V79.5H97.1562V120.094ZM143.688 113.125H128.312L124.781 125H118.906L133.562 79.5H138.469L153.156 125H147.281L143.688 113.125ZM129.812 108.188H142.219L136 87.5L129.812 108.188ZM179.219 113.5C179.219 111.229 178.604 109.49 177.375 108.281C176.146 107.073 173.927 105.896 170.719 104.75C167.51 103.604 165.052 102.406 163.344 101.156C161.656 99.8854 160.385 98.4479 159.531 96.8438C158.698 95.2188 158.281 93.3646 158.281 91.2812C158.281 87.6771 159.479 84.7083 161.875 82.375C164.292 80.0417 167.448 78.875 171.344 78.875C174.01 78.875 176.385 79.4792 178.469 80.6875C180.552 81.875 182.156 83.5312 183.281 85.6562C184.406 87.7812 184.969 90.1146 184.969 92.6562H179.219C179.219 89.8438 178.542 87.6667 177.188 86.125C175.833 84.5833 173.885 83.8125 171.344 83.8125C169.031 83.8125 167.24 84.4583 165.969 85.75C164.698 87.0417 164.062 88.8542 164.062 91.1875C164.062 93.1042 164.75 94.7083 166.125 96C167.5 97.2917 169.625 98.4479 172.5 99.4688C176.979 100.948 180.177 102.771 182.094 104.938C184.031 107.104 185 109.938 185 113.438C185 117.125 183.802 120.083 181.406 122.312C179.01 124.521 175.75 125.625 171.625 125.625C168.979 125.625 166.531 125.052 164.281 123.906C162.052 122.74 160.292 121.115 159 119.031C157.729 116.927 157.094 114.521 157.094 111.812H162.844C162.844 114.625 163.625 116.812 165.188 118.375C166.771 119.938 168.917 120.719 171.625 120.719C174.146 120.719 176.042 120.073 177.312 118.781C178.583 117.49 179.219 115.729 179.219 113.5ZM199.906 79.5L211.781 116.625L223.656 79.5H231.031V125H225.312V107.281L225.844 89.5312L213.938 125H209.562L197.719 89.6562L198.25 107.281V125H192.531V79.5H199.906ZM262.688 113.125H247.312L243.781 125H237.906L252.562 79.5H257.469L272.156 125H266.281L262.688 113.125ZM248.812 108.188H261.219L255 87.5L248.812 108.188Z" fill="white"/>
</svg>
